<svg width="15" height="29" viewBox="0 0 15 29" fill="none" xmlns="http://www.w3.org/2000/svg">
<path d="M13.4645 26.605C12.609 27.068 11.6775 27.1671 10.6907 26.8993C10.4576 26.8363 10.434 26.8623 10.4099 27.0336C10.2756 27.9918 9.30942 28.7676 8.03646 28.9601C6.82179 29.1434 5.55353 28.6821 4.92824 27.8411C4.69685 27.5297 4.60028 27.1927 4.54494 26.8398C4.49725 26.8539 4.47016 26.8623 4.44308 26.8702C3.09181 27.2654 1.69579 26.9684 0.864415 26.079C0.148447 25.3142 0.161401 24.1851 1.10052 23.3996C1.59039 22.9899 2.11265 22.6035 2.62195 22.2084C2.89751 21.9947 2.89927 21.996 2.60311 21.8088C2.58839 21.7996 2.57249 21.7903 2.55836 21.7806C1.30424 20.9577 0.513497 19.9317 0.162578 18.714C-0.0853021 17.8563 -0.00581552 16.9941 0.112531 16.1342C0.576497 12.7812 1.4167 9.47891 2.57073 6.22243C3.07591 4.79551 3.66882 3.3893 4.51668 2.05137C4.857 1.51479 5.2456 0.999361 5.80141 0.568069C6.53034 0.0019722 7.43943 -0.149574 8.2761 0.153959C8.83839 0.35837 9.24171 0.696268 9.5944 1.07029C10.401 1.92758 10.9286 2.88885 11.3655 3.87258C13.2302 8.06698 14.35 12.3808 14.9483 16.773C15.0955 17.8527 14.9371 18.9047 14.3165 19.9013C13.8425 20.6612 13.1931 21.3207 12.324 21.8533C12.1468 21.9621 12.1397 22.0304 12.3093 22.1546C12.7856 22.5022 13.2443 22.8635 13.7059 23.2221C14.5985 23.9159 14.877 24.7159 14.4602 25.6415C14.3871 25.805 14.1875 25.9252 14.1923 26.1111L13.5687 26.5777C13.534 26.5869 13.4939 26.5904 13.4651 26.6059L13.4645 26.605ZM13.0359 17.4325C12.9258 15.6293 12.5236 13.8535 12.0926 12.0821C11.475 9.54191 10.7272 7.02421 9.61854 4.5748C9.20874 3.66904 8.76479 2.77034 8.04765 1.96635C8.03116 1.94829 8.01997 1.92758 8.00113 1.9104C7.39174 1.34078 7.38408 1.3421 6.84652 1.92626C6.15999 2.67254 5.75961 3.52411 5.36336 4.37215C4.90999 5.34487 4.54553 6.33829 4.19579 7.33479C4.13632 7.50352 4.19108 7.52731 4.39833 7.52511C5.01479 7.51806 5.63125 7.51498 6.24772 7.53084C6.67106 7.54097 7.00196 7.74714 7.12148 8.03129C7.24159 8.31632 7.11677 8.63043 6.80471 8.82207C6.58804 8.95467 6.33368 8.98727 6.06284 8.98639C5.32862 8.98462 4.59499 8.98683 3.86018 8.98595C3.74713 8.98595 3.66588 8.98374 3.63467 9.09696C3.37796 10.0278 3.11241 10.9569 2.89279 11.9094C2.99995 11.9116 3.09534 11.9147 3.19131 11.9147C4.15987 11.9156 5.12961 11.9129 6.09875 11.9169C6.73406 11.9195 7.15857 12.2094 7.16623 12.6363C7.17388 13.0733 6.74466 13.3759 6.0964 13.3781C5.00949 13.3817 3.92259 13.383 2.83627 13.3764C2.63137 13.3751 2.54246 13.4011 2.51126 13.5755C2.35641 14.424 2.19743 15.272 2.07261 16.1232C2.04847 16.2844 2.10323 16.3126 2.30754 16.3113C3.57049 16.3033 4.83286 16.3056 6.0964 16.3082C6.65104 16.3095 7.05789 16.5417 7.15033 16.8981C7.27162 17.3655 6.80883 17.7673 6.12643 17.7704C4.94178 17.7756 3.75773 17.7721 2.57308 17.7721C2.13345 17.7721 1.95368 17.9342 2.03375 18.2585C2.68495 20.9022 6.22416 22.3877 9.56908 21.422C11.6817 20.8119 13.1395 19.1387 13.0359 17.4329V17.4325ZM12.4094 24.3371C12.0932 24.0868 11.7611 23.849 11.4361 23.6058L11.4726 23.5785C11.1612 23.3454 10.8438 23.1172 10.5423 22.8771C10.4252 22.7846 10.3286 22.7639 10.1655 22.8106C8.61759 23.2569 7.04199 23.2934 5.44579 22.9705C5.37984 22.9573 5.30683 22.952 5.2509 22.9256C4.78104 22.7071 4.46133 22.8304 4.12749 23.1287C3.65763 23.5489 3.12007 23.926 2.6143 24.3247C2.21981 24.6358 2.2151 25.0816 2.59722 25.3693C2.98288 25.66 3.59758 25.6481 4.01326 25.338C4.26997 25.1468 4.51609 24.9481 4.77044 24.7551C5.12607 24.4855 5.52586 24.4036 5.90975 24.5305C6.34428 24.6745 6.51974 24.9415 6.51974 25.2864C6.51974 25.8063 6.50914 26.327 6.53151 26.846C6.54859 27.2367 6.98076 27.5292 7.49183 27.5314C7.9923 27.5332 8.40681 27.257 8.46569 26.8781C8.47687 26.8054 8.47628 26.7319 8.47628 26.6583C8.47746 26.197 8.47864 25.7358 8.47628 25.2745C8.47511 24.9274 8.65587 24.6556 9.09275 24.5217C9.53081 24.3873 9.91058 24.4895 10.2291 24.7428C10.4841 24.9455 10.7414 25.1463 11.0045 25.3433C11.409 25.6446 12.0043 25.6583 12.4006 25.3803C12.7915 25.1058 12.8021 24.6468 12.4094 24.3371Z" fill="#FEFEFE"/>
</svg>
