<svg width="499" height="236" viewBox="0 0 499 236" fill="none" xmlns="http://www.w3.org/2000/svg">
<path d="M243 188.621C242.422 182.063 234.044 178.459 223.012 180.048C220.758 180.37 218.528 180.813 215.672 181.316C217.395 176.079 218.186 171.32 216.947 166.335C213.301 151.639 184.415 141.018 166.35 148.843C162.681 150.432 160.58 149.755 158.079 147.584C146.739 137.726 132.179 132.958 114.704 134.191C94.9276 135.589 82.3729 144.101 75.4465 157.493C75.2578 157.867 75.1398 158.266 74.9628 158.64C73.9008 160.915 73.6884 163.938 71.5527 165.266C69.2282 166.699 66.3963 163.868 63.5172 163.295C48.0834 160.238 31.0921 166.022 22.679 178.034C19.9415 181.933 16.8264 184.052 10.8441 185.008C5.81745 185.807 -0.0468929 187.301 0.000305234 192.624C1.48705 192.659 2.71418 193.18 4.04753 193.623C9.16853 195.334 14.7025 196.116 19.7291 194.023C23.3752 192.503 24.5197 193.484 26.5139 195.499C33.7942 202.847 43.635 206.399 56.1425 205.583C62.1603 205.192 63.234 203.672 59.8947 200.189C59.0924 199.355 58.939 198.487 58.9862 197.54C58.9036 197.427 58.8092 197.314 58.7266 197.21C58.8092 197.323 58.8918 197.436 58.9744 197.549C66.1485 199.121 73.2282 201.032 80.9805 201.145C80.072 201.735 79.1398 202.074 78.1604 202.317C76.7091 202.682 74.4318 201.77 73.83 203.186C73.2754 204.462 75.4111 205.122 76.4495 205.982C83.5528 211.879 93.3228 213.286 103.093 213.425C110.137 213.521 117.653 213.208 124.072 210.186C125.276 209.621 126.751 208.996 126.385 207.728C126.067 206.668 124.603 206.625 123.353 206.373C119.813 205.67 116.285 204.688 113.783 202.734C110.409 200.102 106.704 199.017 101.736 199.034C96.2137 199.051 91.4231 197.427 88.2137 192.416C95.0574 195.343 100.721 194.579 106.302 192.616C107.824 192.077 109.063 191.591 110.574 192.894C121.17 202.057 134.881 203.533 150.102 201.648C155.353 200.997 159.849 198.765 165.135 198.339C165.288 198.278 165.453 198.218 165.607 198.157C165.453 198.218 165.3 198.287 165.147 198.348C162.338 201.457 158.61 203.698 153.677 204.714C152.474 204.966 150.716 204.792 150.551 205.887C150.374 207.068 152.085 207.537 153.323 208.093C158.857 210.568 165.064 211.801 171.282 212.513C185.725 214.172 201.206 211.011 209.784 198.617C211.436 196.22 212.604 195.143 216.026 197.419C221.725 201.205 228.286 201.37 235.236 199.173C241.726 197.123 242.611 192.998 243 188.603V188.621Z" fill="#FCFCFC"/>
<path d="M240.995 184.908C240.608 190.672 239.731 196.071 233.295 198.77C226.403 201.652 219.897 201.436 214.245 196.47C210.851 193.485 209.704 194.898 208.055 198.041C199.559 214.284 184.195 218.442 169.872 216.266C163.694 215.332 157.55 213.715 152.062 210.468C150.834 209.739 149.137 209.124 149.312 207.575C149.476 206.14 151.22 206.368 152.413 206.038C157.305 204.705 161.002 201.766 163.787 197.688H163.776C158.545 198.224 154.075 201.162 148.868 202.005C133.773 204.477 120.175 202.541 109.667 190.524C108.17 188.804 106.941 189.453 105.431 190.159C99.8966 192.734 94.2915 193.736 87.4929 189.897C90.6757 196.47 95.4266 198.6 100.903 198.577C105.829 198.565 109.504 199.978 112.85 203.429C115.331 205.992 118.83 207.279 122.34 208.202C123.581 208.532 125.043 208.589 125.348 209.979C125.722 211.642 124.248 212.462 123.054 213.202C116.688 217.154 109.234 217.576 102.249 217.451C92.5597 217.28 82.8591 215.423 75.8264 207.689C74.7967 206.561 72.6787 205.696 73.2286 204.021C73.8371 202.165 76.0838 203.349 77.5231 202.882C78.4944 202.563 79.4188 202.119 80.3198 201.345C72.6202 201.197 65.6109 198.702 58.4963 196.629C58.4495 197.871 58.6017 199.01 59.3974 200.103C62.7089 204.659 61.6441 206.653 55.6762 207.177C43.2842 208.247 33.5134 203.589 26.2935 193.952C24.3159 191.321 23.1809 190.034 19.5651 192.016C14.5802 194.761 9.08046 193.736 4.01366 191.492C2.69138 190.911 1.4861 190.228 -5.63264e-06 190.182C0.854212 195.479 4.08387 198.975 11.6782 198.372C20.197 197.688 24.0819 202.017 27.8147 207.746C31.9922 214.17 38.1823 216.676 45.6948 216.71C49.135 216.733 52.903 217.587 55.9337 216.494C62.393 214.17 65.9502 216.631 70.3149 221.084C85.7728 236.86 111.551 238.022 128.495 223.784C132.216 220.651 134.545 221.05 137.611 223.613C151.056 234.775 166.643 237.817 183.622 234.616C195.358 232.406 203.409 224.957 209.389 215.343C211.12 212.564 213.238 209.876 213.894 206.448C214.467 203.441 216.55 204.34 218.457 205.263C231.914 211.79 242.738 200.752 242.996 188.12C243.031 186.628 242.902 185.25 240.995 184.908Z" fill="url(#paint0_linear_976_1513)"/>
<path d="M499 64.2711C498.255 56.5553 487.464 52.3141 473.254 54.1843C470.351 54.5625 467.478 55.0837 463.8 55.6764C466.019 49.514 467.037 43.9136 465.442 38.0476C460.745 20.756 423.539 8.25745 400.27 17.4653C395.543 19.3355 392.838 18.5384 389.616 15.9835C375.01 4.38422 356.255 -1.22634 333.746 0.224841C308.273 1.8702 292.102 11.8854 283.18 27.644C282.937 28.0835 282.785 28.5536 282.557 28.993C281.189 31.6706 280.916 35.227 278.165 36.7906C275.17 38.4768 271.523 35.1452 267.814 34.4707C247.935 30.8734 226.049 37.6797 215.212 51.8134C211.686 56.402 207.674 58.8956 199.968 60.0197C193.493 60.9599 185.94 62.7177 186 68.9823C187.915 69.0232 189.496 69.6364 191.213 70.1576C197.81 72.1708 204.938 73.0906 211.412 70.6277C216.109 68.8392 217.583 69.9941 220.152 72.365C229.529 81.0108 242.205 85.1906 258.315 84.23C266.066 83.7701 267.45 81.9817 263.148 77.8836C262.115 76.9025 261.917 75.8806 261.978 74.7666C261.872 74.6338 261.75 74.5009 261.644 74.3783C261.75 74.5111 261.856 74.644 261.963 74.7768C271.204 76.6266 280.323 78.8749 290.308 79.0077C289.138 79.7027 287.937 80.1013 286.676 80.3874C284.806 80.8166 281.873 79.7436 281.098 81.4094C280.384 82.9116 283.135 83.6883 284.472 84.7001C293.622 91.6392 306.206 93.2948 318.79 93.4583C327.864 93.5707 337.545 93.2028 345.813 89.6464C347.364 88.9821 349.264 88.2463 348.792 86.7542C348.382 85.5074 346.497 85.4563 344.886 85.16C340.327 84.3322 335.782 83.1774 332.56 80.8779C328.214 77.7814 323.441 76.5039 317.043 76.5244C309.93 76.5448 303.759 74.6338 299.625 68.7371C308.44 72.1811 315.735 71.2817 322.924 68.9721C324.885 68.3385 326.481 67.7662 328.426 69.2991C342.075 80.0808 359.735 81.8181 379.342 79.6005C386.105 78.834 391.896 76.2076 398.705 75.7068C398.902 75.6353 399.115 75.5637 399.312 75.4922C399.115 75.5637 398.917 75.6455 398.72 75.717C395.102 79.3757 390.3 82.0123 383.947 83.208C382.396 83.5044 380.132 83.3 379.919 84.5876C379.691 85.9775 381.895 86.5294 383.491 87.1834C390.619 90.096 398.613 91.5472 406.623 92.3852C425.226 94.3372 445.167 90.6172 456.216 76.0338C458.344 73.2132 459.848 71.946 464.256 74.6235C471.597 79.0793 480.047 79.2735 488.999 76.6879C497.359 74.2761 498.498 69.4218 499 64.2506V64.2711Z" fill="#FCFCFC"/>
<path d="M496.417 59.903C495.919 66.6848 494.789 73.0377 486.499 76.2142C477.622 79.6051 469.241 79.3505 461.961 73.5069C457.59 69.9953 456.113 71.6573 453.988 75.3564C443.045 94.4688 423.255 99.3609 404.807 96.8009C396.848 95.7019 388.935 93.7987 381.866 89.9789C380.284 89.1211 378.098 88.3974 378.324 86.5746C378.535 84.8858 380.781 85.1539 382.319 84.7652C388.619 83.1971 393.382 79.7392 396.969 74.941H396.954C390.216 75.5709 384.459 79.0288 377.752 80.0206C358.308 82.929 340.794 80.6505 327.259 66.5106C325.33 64.4868 323.747 65.2507 321.803 66.0817C314.673 69.1107 307.454 70.2902 298.697 65.7734C302.796 73.5068 308.916 76.0132 315.97 75.9864C322.315 75.973 327.048 77.6349 331.359 81.696C334.554 84.7116 339.061 86.2261 343.582 87.3117C345.18 87.7004 347.064 87.7674 347.456 89.4026C347.938 91.3594 346.039 92.3244 344.502 93.1956C336.302 97.8464 326.701 98.3422 317.703 98.1948C305.223 97.9938 292.728 95.8091 283.669 86.7086C282.343 85.3817 279.615 84.3631 280.323 82.3929C281.107 80.2083 284.001 81.6021 285.855 81.0526C287.106 80.6773 288.297 80.1546 289.457 79.2433C279.54 79.069 270.511 76.1338 261.347 73.6945C261.287 75.1554 261.483 76.4957 262.508 77.7823C266.773 83.1435 265.402 85.489 257.715 86.1055C241.753 87.3654 229.167 81.8836 219.868 70.5448C217.321 67.4488 215.859 65.9343 211.201 68.2663C204.78 71.4964 197.696 70.2902 191.17 67.6498C189.467 66.9663 187.914 66.1621 186 66.1085C187.1 72.3408 191.26 76.4555 201.042 75.7451C212.015 74.9409 217.019 80.034 221.827 86.7756C227.208 94.3348 235.181 97.2834 244.858 97.3236C249.289 97.3504 254.143 98.3557 258.046 97.069C266.366 94.3348 270.948 97.2298 276.57 102.47C296.481 121.033 329.686 122.4 351.51 105.647C356.303 101.961 359.303 102.43 363.252 105.446C380.57 118.58 400.647 122.159 422.517 118.393C437.634 115.793 448.004 107.027 455.706 95.7153C457.937 92.445 460.665 89.282 461.509 85.2477C462.248 81.7094 464.931 82.7682 467.387 83.8538C484.721 91.5336 498.663 78.5463 498.994 63.6826C499.039 61.9268 498.874 60.3051 496.417 59.903Z" fill="url(#paint1_linear_976_1513)"/>
<defs>
<linearGradient id="paint0_linear_976_1513" x1="121.498" y1="184.179" x2="121.498" y2="420.7" gradientUnits="userSpaceOnUse">
<stop stop-color="white"/>
<stop offset="0.06" stop-color="#ECF2F5"/>
<stop offset="0.17" stop-color="#BCD1DB"/>
<stop offset="0.34" stop-color="#6E9DB2"/>
<stop offset="0.54" stop-color="#055579"/>
<stop offset="0.55" stop-color="#005277"/>
</linearGradient>
<linearGradient id="paint1_linear_976_1513" x1="342.497" y1="59.0452" x2="342.497" y2="337.355" gradientUnits="userSpaceOnUse">
<stop stop-color="white"/>
<stop offset="0.06" stop-color="#ECF2F5"/>
<stop offset="0.17" stop-color="#BCD1DB"/>
<stop offset="0.34" stop-color="#6E9DB2"/>
<stop offset="0.54" stop-color="#055579"/>
<stop offset="0.55" stop-color="#005277"/>
</linearGradient>
</defs>
</svg>
