<svg width="35" height="52" viewBox="0 0 35 52" fill="none" xmlns="http://www.w3.org/2000/svg">
<path d="M33.9245 14.2373C28.7664 20.4743 26.8402 27.3204 21.9925 33.1179V14.5765C24.4118 9.97396 25.1421 5.02445 26.2833 0.128906C22.3759 2.77327 21.2439 6.51239 20.194 10.2823C18.3955 14.3375 17.1814 18.5238 16.3415 22.7872C16.0584 24.2211 15.7846 25.4315 13.6574 24.1209C13.0093 22.9414 12.8997 21.4997 11.3751 20.7442L11.3203 20.6208C9.36667 16.9048 6.99305 13.4741 3.34133 10.8683C3.00354 11.0456 2.66576 11.2229 2.3371 11.4002C4.29077 15.1239 6.24444 18.8476 8.20724 22.5713C7.86946 24.3753 10.7452 25.2696 10.024 27.1816C10.9826 28.8314 12.635 30.4042 10.9369 32.3855C8.73674 30.6894 6.53658 28.9933 4.33642 27.2895C4.0808 27.2895 3.8617 27.2279 3.66998 27.0891C2.45578 26.8963 1.24159 26.7113 0.027388 26.5186L0 26.4877C0.173457 29.4096 4.62856 29.3094 5.32238 31.869C6.51832 33.2336 7.72339 34.6059 8.91933 35.9704C11.4481 40.442 14.4152 44.7516 16.0037 49.5777C16.9531 52.4611 19.6737 51.5976 22.0108 51.5205C24.1561 51.4512 25.1695 50.6571 25.4069 48.7143C26.6211 38.769 29.7798 29.2169 33.751 19.8267C34.4357 18.2154 35.0474 16.6041 33.961 14.2373H33.9245Z" fill="#D1E8D1"/>
<mask id="mask0_2_124318" style="mask-type:luminance" maskUnits="userSpaceOnUse" x="0" y="0" width="35" height="52">
<path d="M33.9245 14.2373C28.7664 20.4743 26.8402 27.3204 21.9925 33.1179V14.5765C24.4118 9.97396 25.1421 5.02445 26.2833 0.128906C22.3759 2.77327 21.2439 6.51239 20.194 10.2823C18.3955 14.3375 17.1814 18.5238 16.3415 22.7872C16.0584 24.2211 15.7846 25.4315 13.6574 24.1209C13.0093 22.9414 12.8997 21.4997 11.3751 20.7442L11.3203 20.6208C9.36667 16.9048 6.99305 13.4741 3.34133 10.8683C3.00354 11.0456 2.66576 11.2229 2.3371 11.4002C4.29077 15.1239 6.24444 18.8476 8.20724 22.5713C7.86946 24.3753 10.7452 25.2696 10.024 27.1816C10.9826 28.8314 12.635 30.4042 10.9369 32.3855C8.73674 30.6894 6.53658 28.9933 4.33642 27.2895C4.0808 27.2895 3.8617 27.2279 3.66998 27.0891C2.45578 26.8963 1.24159 26.7113 0.027388 26.5186L0 26.4877C0.173457 29.4096 4.62856 29.3094 5.32238 31.869C6.51832 33.2336 7.72339 34.6059 8.91933 35.9704C11.4481 40.442 14.4152 44.7516 16.0037 49.5777C16.9531 52.4611 19.6737 51.5976 22.0108 51.5205C24.1561 51.4512 25.1695 50.6571 25.4069 48.7143C26.6211 38.769 29.7798 29.2169 33.751 19.8267C34.4357 18.2154 35.0474 16.6041 33.961 14.2373H33.9245Z" fill="white"/>
</mask>
<g mask="url(#mask0_2_124318)">
<path d="M2.39184 10.9838C3.29564 12.4795 4.19944 13.9751 5.17627 15.4399C6.15311 16.9047 7.17559 18.1537 8.10678 19.5491C9.98742 22.3631 10.6539 25.763 11.6307 28.8622C12.1693 30.5737 12.3884 32.2158 12.5984 33.9659C12.7901 35.5617 13.3561 37.1037 13.9039 38.6301C15.0633 41.8604 16.2227 45.0907 17.4917 48.2979C18.9433 51.9676 20.5318 55.5911 22.3759 59.1297C22.5219 59.4073 23.5536 58.991 23.3984 58.7057C20.1392 52.4687 17.7108 45.9619 15.3737 39.4396C14.7712 37.7744 14.0773 36.0937 13.7578 34.3668C13.4748 32.8017 13.4839 31.2444 13.0457 29.6948C12.5801 28.0527 12.0141 26.426 11.5029 24.7916C11.0282 23.3036 10.6173 21.7848 9.87787 20.3663C9.01058 18.6933 7.69596 17.2131 6.6187 15.6404C5.47754 13.9751 4.44593 12.2636 3.41432 10.5521C3.24999 10.2745 2.22751 10.7063 2.39184 10.9761V10.9838Z" fill="#92BA90"/>
<path d="M-0.292131 27.3049C2.30059 28.4613 4.57379 30.0495 6.36313 32.0077C8.2529 34.0738 9.22973 36.4098 10.3435 38.8152C12.6532 43.8341 16.4875 48.3056 18.0121 53.5789L19.0163 53.1472C16.9896 51.4819 15.5746 49.3464 14.0409 47.3727C12.3428 45.1832 10.6448 43.0014 8.95585 40.8119C5.71495 36.6334 2.43753 32.5165 0.0547822 27.9216L-0.867278 28.4613C0.931195 29.2245 2.50144 30.2268 3.84344 31.5066L4.82028 31.0131C3.56956 29.849 2.23669 28.7465 0.821644 27.7212C0.547765 27.5207 -0.383425 28.0604 -0.0456402 28.3071C1.64328 29.5406 3.25917 30.8281 4.81115 32.1773L5.78798 31.6839C4.07168 30.2114 2.22756 28.8776 0.228239 27.6903L-0.639045 28.2763C2.54708 30.1111 5.68756 32.0616 7.86034 34.8062L8.7824 34.2666C6.55485 32.8943 4.73811 31.175 3.36872 29.1552L2.39188 29.6486C4.24513 31.4911 5.88841 33.4571 7.33084 35.5463L8.30767 35.0529C7.12999 33.8348 6.20793 32.5165 5.50498 31.0594L4.52814 31.5528C6.50007 33.8734 8.48113 36.1862 10.4531 38.5068C10.6813 38.7766 11.6399 38.2986 11.4299 38.0134C9.93269 35.9164 8.28941 33.9042 6.5092 31.9691C6.26271 31.6993 5.30413 32.2158 5.53236 32.4625C6.93828 33.989 7.77817 35.7468 8.00641 37.6742L9.01063 37.2424L4.73811 30.1882L3.76128 30.6816C5.04851 32.0539 6.23532 33.4879 7.32171 34.9835C7.52255 35.2611 8.49026 34.7831 8.29854 34.4901C7.48604 33.2489 6.59136 32.0539 5.6054 30.9052C5.37717 30.6354 4.44598 31.098 4.62856 31.3986C6.54572 34.6983 8.30767 38.0519 9.9053 41.4672L10.8821 40.9738C9.44884 38.9154 8.02466 36.8415 7.31258 34.5133L6.30835 34.945C7.5682 36.8724 8.70936 38.8383 9.74097 40.8582L10.7178 40.3648C9.85052 39.085 9.17496 37.7436 8.67284 36.325L7.69601 36.8184C8.75501 37.9748 9.5949 39.2161 10.234 40.5729L11.2108 40.0795C8.76414 36.7028 6.30836 33.326 3.8617 29.9415L2.93964 30.4812L3.96212 31.1288C4.25426 31.3138 5.16719 30.7973 4.82941 30.5429C4.04429 29.9415 3.35959 29.2939 2.72967 28.5769L1.80761 29.1166C3.00355 29.8876 4.14471 30.7125 5.22197 31.5991L6.14403 31.0594L3.54218 29.001C3.28656 28.7928 2.34624 29.3248 2.67489 29.5869C3.65173 30.3655 4.52814 31.2213 5.31326 32.1464C5.55062 32.424 6.5092 31.9152 6.2901 31.653C5.47759 30.6893 4.56466 29.8182 3.54218 29.001L2.67489 29.5869L5.27674 31.6453C5.53236 31.8458 6.43617 31.2984 6.1988 31.1057C5.08503 30.1882 3.90735 29.3325 2.67489 28.5384C2.41927 28.3765 1.53373 28.8236 1.75283 29.0781C2.41014 29.8259 3.14049 30.5043 3.96212 31.1365L4.82941 30.5506L3.80693 29.903C3.55131 29.7411 2.68402 30.1728 2.88487 30.4426C5.33152 33.8194 7.7873 37.1962 10.234 40.5807C10.4439 40.8659 11.3569 40.3956 11.2108 40.0872C10.5717 38.7304 9.73184 37.4814 8.67284 36.3327C8.41722 36.0552 7.58646 36.51 7.69601 36.8261C8.18899 38.2447 8.87369 39.5861 9.74097 40.8659C9.93269 41.1512 10.8821 40.6809 10.7178 40.3725C9.6862 38.3526 8.54504 36.379 7.28519 34.4593C7.11173 34.1895 6.20793 34.6289 6.28097 34.891C7.00218 37.2656 8.42635 39.378 9.88704 41.4827C10.0879 41.7679 11.0099 41.2976 10.8639 40.9893C9.25712 37.5739 7.49516 34.2203 5.58714 30.9206L4.6103 31.414C5.59627 32.5628 6.49094 33.7577 7.30345 34.999L8.28028 34.5056C7.20303 33.0099 6.01622 31.5759 4.71986 30.2036C4.47337 29.9415 3.56043 30.3964 3.74302 30.6971C5.16719 33.0485 6.59136 35.3999 8.01553 37.7513C8.18899 38.0442 9.04715 37.5817 9.01976 37.3195C8.7824 35.3536 7.9425 33.5419 6.50007 31.9845L5.52324 32.478C7.30345 34.413 8.93759 36.4252 10.4439 38.5222L11.4208 38.0288C9.44884 35.7082 7.46778 33.3954 5.49585 31.0748C5.25849 30.805 4.36381 31.2598 4.51901 31.5682C5.22197 33.0176 6.15316 34.3437 7.32171 35.5618C7.5682 35.8162 8.49939 35.3613 8.29854 35.0683C6.86524 32.9791 5.21284 31.0131 3.35959 29.1706C3.10397 28.9239 2.18191 29.371 2.38275 29.664C3.77954 31.7224 5.64192 33.4725 7.90598 34.8679C8.1616 35.0221 9.03802 34.5981 8.82804 34.3282C6.62788 31.5528 3.45088 29.5715 0.21911 27.7135C-0.0912868 27.5362 -1.00422 28.0912 -0.648174 28.2994C1.3055 29.4635 3.13136 30.7587 4.80202 32.2004C5.09416 32.4548 6.02535 31.9152 5.77886 31.707C4.19036 30.327 2.53795 29.0087 0.812514 27.752L-0.0547696 28.3379C1.31463 29.3402 2.61099 30.4041 3.83431 31.5374C4.10819 31.7995 5.04851 31.2676 4.81115 31.044C3.44175 29.7411 1.835 28.6926 -0.00912309 27.9062C-0.292131 27.7829 -1.09551 28.1298 -0.931183 28.4459C1.45157 33.0407 4.72899 37.1576 7.96989 41.3362C9.62229 43.4717 11.2747 45.6073 12.9362 47.7351C14.5978 49.8629 15.9672 51.9676 18.0395 53.6714C18.286 53.8719 19.1259 53.5481 19.0437 53.2397C17.5009 47.9124 13.6574 43.4178 11.3295 38.3526C10.1792 35.847 9.14757 33.4339 7.13912 31.3061C5.34978 29.4173 3.1131 27.8754 0.584282 26.7421C0.246497 26.5879 -0.639045 27.1661 -0.283002 27.328L-0.292131 27.3049Z" fill="#92BA90"/>
<path d="M1.25981 28.3072C1.25981 28.3072 1.32372 28.3303 1.35111 28.3457C1.36937 28.3457 1.37849 28.3611 1.39675 28.3611C1.32372 28.3303 1.31459 28.3226 1.36024 28.3457C1.41501 28.3688 1.46066 28.392 1.5063 28.4228C1.55195 28.4536 1.60673 28.4768 1.65237 28.5076C1.67976 28.523 1.70715 28.5384 1.73454 28.5539C1.74367 28.5616 1.76193 28.5693 1.77105 28.577C1.72541 28.5462 1.71628 28.5462 1.74367 28.5616C1.93538 28.6926 2.10884 28.8391 2.25491 29.001H3.26826C2.82092 28.5384 2.22752 28.1915 1.58847 27.9602C1.38762 27.8908 1.12287 27.8292 0.903771 27.8677C0.848995 27.8754 0.78509 27.8908 0.739443 27.9217C0.675538 27.9679 0.712055 28.0296 0.757702 28.0682C1.20504 28.4536 1.6615 28.8391 2.10884 29.2246C2.191 29.294 2.31881 29.3402 2.41924 29.3634C2.55617 29.4019 2.71137 29.425 2.85744 29.425C2.93961 29.425 3.08567 29.425 3.14045 29.3634C3.1861 29.3094 3.17697 29.2631 3.12219 29.2169C2.67486 28.8314 2.21839 28.4459 1.77105 28.0605L0.949417 28.1684C1.01332 28.1915 1.08636 28.2146 1.15026 28.2455C1.18678 28.2609 1.2233 28.2763 1.25981 28.2917C1.31459 28.3149 1.23243 28.2763 1.2233 28.2763C1.24155 28.2763 1.25981 28.2917 1.27807 28.2995C1.40588 28.3611 1.53369 28.4305 1.6615 28.5076C1.67063 28.5153 1.68889 28.523 1.69802 28.5307C1.7528 28.5693 1.65237 28.4999 1.68889 28.5307C1.71628 28.5539 1.74367 28.5693 1.77105 28.5924C1.82583 28.631 1.88061 28.6772 1.93538 28.7158C2.04493 28.8083 2.15449 28.9008 2.25491 29.001C2.31881 29.0704 2.47401 29.1167 2.5653 29.1398C2.70224 29.1783 2.85744 29.2015 3.00351 29.2015C3.08567 29.2015 3.23174 29.2015 3.28652 29.1398C3.34129 29.0858 3.31391 29.0473 3.26826 28.9933C2.91222 28.6078 2.42836 28.3149 1.90799 28.1067C1.78018 28.0527 1.62499 28.0219 1.47892 28.0142C1.37849 28.0065 1.2233 27.9988 1.12287 28.0373C1.0681 28.0605 0.995064 28.099 1.03158 28.1684C1.07723 28.2455 1.17765 28.2917 1.25981 28.3226V28.3072Z" fill="#92BA90"/>
<path d="M9.85972 37.335L15.1182 43.5489L16.2594 43.6028L13.1097 40.1104C12.9272 39.91 12.0416 40.1413 11.9686 40.0565C14.0318 42.5235 15.7846 45.1525 17.2088 47.9202L18.35 47.9741C16.515 46.1932 14.9995 44.2273 13.8127 42.0995L12.6715 42.0455C14.5065 44.8826 16.1772 47.7968 17.6927 50.765L18.8338 50.8189C16.9075 48.0358 15.0999 45.2064 13.4019 42.3231C13.3197 42.1843 13.2376 42.0455 13.1645 41.9145C13.0732 41.5829 12.7994 41.4365 12.3338 41.4596C12.5072 41.5984 12.6533 41.7603 12.7537 41.9376C12.845 42.0918 12.9272 42.2537 13.0002 42.4156C13.3836 43.1788 13.7397 43.9575 14.0866 44.7361C14.7804 46.2935 15.3921 47.8739 15.949 49.4698L17.0901 49.5237C15.6568 47.3651 14.5065 45.0908 13.6484 42.7162L12.5072 42.6623C14.543 46.1547 16.2228 49.7859 17.5375 53.525L18.6786 53.579C17.7292 51.5976 16.7797 49.6163 15.8394 47.6426C15.7481 47.4576 14.7074 47.6118 14.6982 47.5887C15.5473 49.6548 16.661 51.613 18.0487 53.4556C18.1491 53.5944 19.1899 53.5327 19.1899 53.5096C18.8338 52.1296 18.4778 50.7573 18.1126 49.3773L16.9714 49.3233C17.6014 50.3564 18.0578 51.428 18.35 52.5613L19.4911 52.6153C19.0894 51.8289 18.8064 51.0271 18.6238 50.1868L17.4827 50.1328L18.6512 52.4534C18.7517 52.6538 19.7741 52.4611 19.7924 52.5073L18.6238 50.1868C18.5417 50.0326 17.4827 50.1097 17.4827 50.1328C17.6653 50.9731 17.9483 51.7749 18.35 52.5613C18.4321 52.7232 19.4911 52.6307 19.4911 52.6153C19.2081 51.482 18.7517 50.4103 18.1126 49.3773C18.0213 49.2231 16.9714 49.3079 16.9714 49.3233C17.3275 50.7033 17.6835 52.0756 18.0487 53.4556L19.1899 53.5096C17.8022 51.667 16.6884 49.7011 15.8394 47.6426L14.6982 47.5887C15.6477 49.57 16.5971 51.5513 17.5375 53.525C17.6196 53.7023 18.6695 53.5712 18.6786 53.579C17.3731 49.8398 15.6842 46.2164 13.6484 42.7162C13.548 42.5466 12.5163 42.67 12.5072 42.6623C13.3654 45.0291 14.5157 47.3034 15.949 49.4698C16.0585 49.6317 17.0901 49.516 17.0901 49.5237C16.378 47.4807 15.5564 45.4608 14.6252 43.4795C14.3331 42.8627 14.0683 41.7988 13.338 41.4288C12.918 41.2129 12.3429 41.236 11.8682 41.2746C11.8955 41.2746 11.6856 41.29 11.6947 41.3131C13.548 44.528 15.5473 47.6812 17.6835 50.7727C17.8113 50.9577 18.8064 50.7881 18.8247 50.8267C17.3092 47.8585 15.6386 44.9443 13.8036 42.1072C13.6758 41.9145 12.6898 42.1072 12.6624 42.0532C13.8492 44.181 15.3738 46.1547 17.1997 47.9279C17.3457 48.0666 18.3317 47.9587 18.3408 47.9818C16.9167 45.2141 15.1638 42.5852 13.1006 40.1181L11.9595 40.0642L15.1091 43.5566C15.2917 43.757 16.1772 43.518 16.2502 43.6105L10.9917 37.3967C10.8183 37.1885 9.92362 37.4352 9.85059 37.3427L9.85972 37.335Z" fill="#92BA90"/>
<path d="M2.49195 11.3307C2.94841 12.8572 3.35923 14.3991 3.85221 15.9179C4.28129 17.2362 5.07554 18.1922 5.94282 19.3255C7.84172 21.8157 8.66335 24.7453 9.4576 27.5901L10.5349 27.3126L10.4071 27.4282H9.74061C10.1149 27.6287 10.2792 28.4844 10.471 28.8236C10.7357 29.2708 11.0552 29.6794 11.4204 30.0649C11.6395 30.2962 12.6346 30.1497 12.4977 29.7873C10.4892 24.4523 8.06082 19.233 5.249 14.1678L4.17174 14.4454C6.85575 17.7373 8.40773 21.5073 9.49412 25.3621C9.60367 25.7398 10.7174 25.5317 10.6079 25.1539C9.50325 21.2452 7.92388 17.4213 5.20335 14.0985C4.99338 13.8363 3.95263 14.0599 4.12609 14.376C6.94705 19.4489 9.36631 24.6605 11.3748 29.9955L12.452 29.7179C11.9773 29.2091 11.5756 28.6617 11.2926 28.0527C11.1557 27.752 11.11 27.3203 10.827 27.0813C10.4071 26.7266 9.64019 26.9194 9.40283 27.3357C9.35718 27.4128 9.33892 27.4899 9.40283 27.5593L9.49412 27.6595C9.72235 27.8985 10.6718 27.752 10.5714 27.382C9.81365 24.6836 9.03766 21.939 7.37612 19.526C6.5271 18.2847 5.48636 17.2671 5.02076 15.8562C4.49126 14.2912 4.07132 12.6953 3.60572 11.1226C3.49617 10.7448 2.38239 10.9607 2.49195 11.3307Z" fill="#92BA90"/>
<path d="M11.6486 29.4944C10.827 32.3623 12.5067 35.0684 13.2736 37.8053C14.004 40.3956 14.0587 43.1711 15.8389 45.4608C15.9668 45.6227 16.9345 45.1216 16.834 44.9828C15.1086 42.7702 14.999 40.095 14.3326 37.5817C13.5931 34.7831 11.8038 32.0231 12.6346 29.0935C12.6619 29.0087 11.7125 29.2477 11.6395 29.4944H11.6486Z" fill="#92BA90"/>
<path d="M25.4521 0.383584C22.9689 2.26471 22.3664 5.19432 21.6634 7.81556C20.7414 11.254 19.9471 14.7233 19.1711 18.1849C18.806 19.8193 18.5138 21.4383 18.5229 23.1112C18.5321 24.9924 18.5229 26.781 18.0391 28.6235C17.1809 31.9078 15.9667 34.9839 15.9485 38.3838C15.9302 42.385 16.971 46.3092 18.0847 50.1716C18.2125 50.6111 19.3081 50.7961 19.162 50.2564C18.2217 46.9799 17.3179 43.6648 17.0805 40.288C16.8432 36.9113 17.6922 33.627 18.7147 30.2811C19.1894 28.7315 19.5819 27.1664 19.6185 25.5552C19.6641 23.8282 19.5363 22.1244 19.8376 20.3975C20.4218 17.067 21.2983 13.7519 22.1199 10.4599C22.549 8.74841 22.9689 7.02148 23.5167 5.33309C24.0644 3.64471 24.7856 2.14906 26.292 1.00035C26.7484 0.653417 25.8629 0.059784 25.4521 0.375874V0.383584Z" fill="#92BA90"/>
<path d="M24.649 1.03859C19.7923 6.69737 17.4186 13.5126 16.2683 20.3586C15.9762 22.0701 15.7115 23.7431 16.0766 25.4623C16.4601 27.2818 16.9074 28.9625 16.7248 30.8204C16.3688 34.4593 14.6981 37.9595 15.182 41.6523C15.2093 41.8451 16.2318 42.0147 16.2318 42.0378C16.2683 40.4265 16.8344 38.9 17.1995 37.335C17.5373 35.8779 17.7382 34.4054 17.866 32.9251C18.1398 29.8259 18.0577 26.719 18.1033 23.6198C18.1764 18.0689 18.715 12.333 22.0746 7.42207L21.0247 7.03659C19.9748 9.91224 18.9067 12.7879 17.8934 15.6712C16.88 18.5546 16.1223 21.2761 16.3596 24.1903C16.3779 24.3984 17.4004 24.5372 17.4095 24.5757C17.3182 22.2243 18.0759 19.9732 18.9067 17.7528C19.7375 15.5325 20.6687 13.1579 21.5816 10.8682L20.5317 10.4827C18.8885 15.1007 17.9481 19.8652 17.7016 24.676L18.7515 25.0614L18.6876 21.3069L17.6377 20.9214C17.729 22.2398 17.7747 23.5581 17.7473 24.8764C17.7382 25.5009 17.7016 26.1331 17.6651 26.7575C17.6377 27.1738 17.7473 28.0913 17.3456 28.3765L18.3316 28.708L18.3498 28.5924C18.2585 28.6078 17.656 28.1375 17.3547 28.1915L17.2726 28.2069H17.2452C17.2452 28.3611 17.2452 28.3534 17.3912 28.4305C17.5373 28.5076 18.2311 28.8699 18.3772 28.762C18.7789 28.469 18.6511 27.7521 18.6876 27.328C18.7333 26.6419 18.7698 25.948 18.788 25.2619C18.8154 23.9436 18.7698 22.6252 18.6785 21.3069C18.6602 21.0987 17.6377 20.96 17.6286 20.9214L17.6925 24.676C17.6925 24.8687 18.7424 25.0383 18.7424 25.0614C18.9797 20.243 19.9292 15.4862 21.5725 10.8682C21.6181 10.7526 20.55 10.4211 20.5226 10.4827C19.6097 12.7725 18.715 15.0699 17.8477 17.3673C16.9804 19.6648 16.2592 21.8389 16.3505 24.1903L17.4004 24.5757C17.163 21.6615 17.9573 18.8321 18.9341 16.0567C19.9109 13.2813 21.0247 10.2977 22.0654 7.42207C22.102 7.32955 21.0795 6.95179 21.0156 7.03659C17.656 11.9476 17.1265 17.6834 17.0443 23.2343C16.9987 26.3335 17.0809 29.4482 16.807 32.5397C16.6792 34.0199 16.4692 35.4924 16.1405 36.9495C15.7845 38.5145 15.2093 40.041 15.1728 41.6523L16.2227 42.0378C15.7388 38.3449 17.4095 34.8448 17.7655 31.2059C17.9481 29.3479 17.5008 27.6673 17.1174 25.8478C16.7522 24.1286 17.0261 22.4556 17.3091 20.7441C18.4594 13.8981 20.833 7.08285 25.6898 1.42406C25.708 1.40093 24.7495 0.915235 24.6399 1.03859H24.649Z" fill="#92BA90"/>
<path d="M33.8334 14.0907C28.8488 19.5336 26.5482 26.0328 24.7497 32.6321C24.275 34.3899 23.6816 36.0937 22.86 37.7589C22.0383 39.4242 21.1802 40.9199 20.5229 42.562C19.1626 45.9773 18.7974 49.6162 19.3726 53.178H20.4955C19.0804 51.0193 18.3775 48.5677 18.5236 46.0929C18.6696 43.6182 19.7104 41.4364 20.7876 39.2315C21.3171 38.1367 21.8649 37.0497 22.294 35.9241C22.7504 34.7291 23.006 33.4802 23.5538 32.3083C24.5489 30.1959 26.6669 28.6309 27.589 26.4799L26.4478 26.4414C25.0693 29.8644 23.6907 33.2874 22.3214 36.7182L23.4625 36.7567C24.1016 34.9373 24.6311 33.1024 25.0601 31.2367C25.0967 31.0825 24.0194 30.9977 23.919 31.1981C23.4899 32.0693 23.0608 32.9405 22.6409 33.8117C22.6044 33.8965 23.6634 34.0892 23.782 33.8502C24.2202 32.9636 24.5945 32.0616 24.9141 31.1365C24.9597 31.0054 23.9007 30.9052 23.8003 31.0594C23.3438 31.707 22.9969 32.3777 22.7413 33.0947C22.6957 33.2257 23.7638 33.3337 23.8825 33.1332C24.5398 32.0847 25.1606 31.0285 25.754 29.9569C25.7996 29.8644 24.768 29.7102 24.6402 29.8798C23.8459 30.8975 23.143 31.9383 22.5039 33.0253C22.44 33.1409 23.4716 33.218 23.6177 33.1024C24.0194 32.7863 24.2568 32.4702 24.4302 32.0385C24.4759 31.9306 23.4077 31.7841 23.2891 31.9999C22.4857 33.4879 21.8101 35.0144 21.2715 36.5794C21.2258 36.7027 22.3031 36.8338 22.4126 36.6179L24.0742 33.3183L22.933 33.2797C21.9836 35.3227 21.1437 37.3889 20.4133 39.4936C20.3677 39.6169 21.4449 39.748 21.5545 39.5321L23.3712 35.8932C23.4169 35.8084 22.3579 35.6234 22.2301 35.8547C20.8424 38.2832 19.5643 40.7502 18.3958 43.2558L19.5369 43.2944C20.3586 41.2128 21.4723 39.2469 22.8691 37.3966L21.7553 37.3195C20.2673 39.7095 19.0622 42.2073 18.1493 44.7977C18.1036 44.9211 19.1809 45.0522 19.2904 44.8363L23.2617 37.1113C23.3073 37.0343 22.2483 36.8338 22.1205 37.0728C20.7876 39.4936 19.5917 41.9683 18.5418 44.4971C18.4962 44.5973 19.5734 44.7669 19.683 44.5356C21.025 41.6368 22.5587 38.8152 24.2933 36.0706L23.1521 36.032C21.591 38.5993 20.2399 41.2514 19.1078 43.9728L20.249 44.0114C21.0798 41.552 22.084 39.139 23.2708 36.7875L22.1296 36.749C20.8515 39.3702 19.5643 41.9992 18.2862 44.6204L19.4274 44.659L19.9112 42.215L18.7701 42.1765C18.7244 43.7184 18.487 45.2295 18.0397 46.7251L19.1809 46.7637C19.3726 45.8385 19.4365 44.9211 19.4 43.9805C19.4 43.7955 18.2862 43.7492 18.2588 43.942C17.9849 45.7614 17.6289 47.5732 17.1816 49.3695L18.3227 49.408C18.2953 47.9818 18.5783 46.6095 19.1535 45.268L18.0123 45.2295C18.0488 46.8639 18.1858 48.4366 18.0762 50.071L19.2174 50.1096C19.3269 47.9509 19.6373 45.8154 20.1668 43.6953L19.0257 43.6567C18.7061 45.5995 18.3958 47.5423 18.0762 49.4851C18.0488 49.647 19.1809 49.7318 19.2174 49.5237C19.5095 47.7736 19.9477 46.0467 20.532 44.3506L19.3908 44.312L18.4962 48.5677C18.4688 48.7142 19.5917 48.8221 19.6373 48.6062L20.532 44.3506C20.5594 44.2041 19.4639 44.0962 19.3908 44.312C18.8157 46.0158 18.3775 47.7351 18.0762 49.4851L19.2174 49.5237C19.5369 47.5809 19.8473 45.6381 20.1668 43.6953C20.1942 43.5411 19.0804 43.4486 19.0257 43.6567C18.5053 45.7691 18.1858 47.9047 18.0762 50.071C18.0762 50.2561 19.1991 50.3023 19.2174 50.1096C19.3269 48.4752 19.19 46.9024 19.1535 45.268C19.1535 45.0753 18.0945 45.0444 18.0123 45.2295C17.428 46.5709 17.1542 47.9355 17.1816 49.3695C17.1816 49.5545 18.2771 49.6008 18.3227 49.408C18.7701 47.6117 19.1261 45.8 19.4 43.9805L18.2588 43.942C18.2953 44.8825 18.2314 45.8 18.0397 46.7251C18.0123 46.8716 19.117 46.9795 19.1809 46.7637C19.6282 45.268 19.8656 43.757 19.9112 42.215C19.9112 42.0377 18.8066 41.9761 18.7701 42.1765L18.2862 44.6204C18.2588 44.7823 19.3269 44.8594 19.4274 44.659C20.7055 42.0377 21.9927 39.4088 23.2708 36.7875C23.3164 36.7027 22.2483 36.51 22.1296 36.749C20.9428 39.1004 19.9386 41.5135 19.1078 43.9728C19.0713 44.0962 20.1577 44.2349 20.249 44.0114C21.381 41.2899 22.7322 38.6378 24.2933 36.0706C24.3298 36.0089 23.2982 35.793 23.1521 36.032C21.4267 38.7766 19.8838 41.5983 18.5418 44.4971L19.683 44.5356C20.7329 42.0146 21.9197 39.5398 23.2617 37.1113L22.1205 37.0728L18.1493 44.7977L19.2904 44.8363C20.2034 42.2459 21.4084 39.748 22.8965 37.3581C22.9421 37.2887 21.9197 37.0959 21.7827 37.281C20.3677 39.1544 19.2356 41.1434 18.4049 43.2481C18.3592 43.3561 19.4365 43.518 19.546 43.2867C20.7237 40.7811 22.0018 38.314 23.3804 35.8855L22.2392 35.847L20.4225 39.4859L21.5636 39.5244C22.2848 37.4197 23.1247 35.3459 24.0833 33.3106C24.129 33.218 23.0608 33.033 22.9421 33.272L21.2806 36.5717L22.4218 36.6102C22.9604 35.0375 23.636 33.5187 24.4394 32.0308L23.2982 31.9922C23.1339 32.4008 22.8965 32.7015 22.5313 32.9945L23.6451 33.0716C24.2659 32.0076 24.9688 30.9823 25.7357 29.9878L24.6219 29.9107C24.0285 30.9823 23.4077 32.0462 22.7504 33.087L23.8916 33.1255C24.1381 32.424 24.4667 31.7841 24.9049 31.1519L23.7912 31.0748C23.4808 31.9999 23.1065 32.902 22.6591 33.7885L23.8003 33.8271C24.2294 32.9559 24.6585 32.0847 25.0784 31.2136L23.9372 31.175C23.5082 33.033 22.9787 34.8756 22.3396 36.695C22.3031 36.8107 23.3895 36.9649 23.4808 36.7336C24.8593 33.3106 26.2378 29.8875 27.6072 26.4568C27.6529 26.3566 26.5665 26.187 26.4661 26.4182C25.5531 28.5692 23.4351 30.1342 22.4309 32.2466C21.8831 33.4108 21.6275 34.6674 21.1711 35.8624C20.7146 37.0574 20.0938 38.2909 19.5187 39.4859C18.4231 41.7448 17.428 44.0499 17.3915 46.5247C17.355 48.8684 18.0854 51.1581 19.4182 53.2011C19.5187 53.3476 20.5685 53.363 20.5411 53.2011C19.9843 49.755 20.2946 46.2394 21.5545 42.9166C22.1844 41.2668 23.0608 39.7017 23.8642 38.1059C24.6676 36.51 25.334 34.7522 25.827 32.9945C27.6803 26.2949 29.8895 19.711 34.9563 14.1755C35.0567 14.0676 34.0343 13.8749 33.8608 14.0676L33.8334 14.0907Z" fill="#92BA90"/>
</g>
</svg>
